<svg xmlns="http://www.w3.org/2000/svg" version="1.0" width="96.000000pt" height="96.000000pt" viewBox="0 0 96.000000 96.000000" preserveAspectRatio="xMidYMid meet">

<g transform="translate(0.000000,96.000000) scale(0.100000,-0.100000)" fill="#edca08" stroke="none">
<path d="M335 786 c-17 -7 -43 -28 -58 -45 -42 -51 -32 -101 20 -101 21 0 23 -4 23 -60 l0 -59 -91 -3 c-75 -2 -94 -6 -103 -20 -8 -13 -8 -23 0 -35 9 -15 28 -19 103 -21 l91 -3 0 -119 0 -119 -51 -3 c-59 -3 -82 -25 -63 -55 10 -16 35 -18 274 -18 239 0 264 2 274 18 19 30 -4 52 -63 55 l-51 3 0 119 0 119 91 3 c75 2 94 6 103 21 8 12 8 22 0 35 -9 14 -28 18 -103 20 l-91 3 0 59 c0 56 2 60 23 60 52 0 62 50 20 101 -15 17 -42 38 -60 45 -43 19 -247 18 -288 0z" fill="#edca08"/>
</g>
</svg>