<svg xmlns="http://www.w3.org/2000/svg" xmlns:xlink="http://www.w3.org/1999/xlink" version="1.1" id="Layer_1" x="0px" y="0px" width="100%" viewBox="0 0 2000 2000" enable-background="new 0 0 2000 2000" xml:space="preserve">
<path fill="#fea500" opacity="1.000000" stroke="none" d=" M1119.000000,913.000000   C1163.329346,913.000000 1207.158813,912.992920 1250.988159,913.002380   C1281.142578,913.008911 1300.981812,932.886780 1300.999512,963.084839   C1301.002686,968.542053 1301.000000,973.999207 1301.000000,979.753418   C1324.734985,979.508850 1343.729858,988.787415 1358.666992,1006.315735   C1372.461914,1022.503662 1377.204712,1041.568115 1376.059937,1062.558838   C1374.446289,1092.146606 1351.636230,1129.897583 1301.000000,1133.493774   C1301.000000,1139.059326 1301.016724,1144.675659 1300.997192,1150.291870   C1300.898193,1178.771362 1280.658325,1198.987549 1252.107666,1198.990723   C1084.789429,1199.009521 917.471130,1199.007935 750.152832,1198.992310   C721.259521,1198.989624 701.079712,1178.853760 701.002075,1150.060913   C700.987366,1144.590942 701.000061,1139.120972 701.000061,1133.358765   C689.017395,1132.479126 677.612061,1130.375732 667.289307,1124.740479   C641.069946,1110.427246 626.801453,1088.614258 625.929321,1058.351807   C625.065430,1028.377319 637.653931,1005.600647 662.724365,989.829163   C672.785583,983.499817 684.023193,979.532959 696.267578,980.051453   C700.107239,980.214111 701.115784,978.639038 701.069214,975.051208   C700.976318,967.898010 700.443176,960.603394 701.577271,953.607971   C705.644958,928.517700 724.448181,913.010437 750.033875,913.007141   C872.855896,912.991272 995.677979,913.000000 1119.000000,913.000000  M1339.671387,1086.389526   C1363.188354,1077.206177 1365.735107,1043.291626 1345.953125,1028.852173   C1331.529297,1018.323914 1311.264771,1024.792114 1303.724487,1042.749634   C1298.438354,1055.338623 1300.189697,1067.451172 1308.810913,1077.865967   C1316.605225,1087.282104 1327.003784,1090.212158 1339.671387,1086.389526  M661.570129,1025.891357   C645.204651,1033.491089 638.041016,1053.060181 645.557190,1069.821777   C650.355103,1080.521484 658.295166,1087.356323 670.292908,1087.920776   C685.557861,1088.639160 697.200500,1078.695679 700.418335,1062.318237   C704.612244,1040.973389 687.159546,1017.685425 661.570129,1025.891357  z"/>
<path fill="#FEFEFE" opacity="1.000000" stroke="none" d=" M1339.307007,1086.553589   C1327.003784,1090.212158 1316.605225,1087.282104 1308.810913,1077.865967   C1300.189697,1067.451172 1298.438354,1055.338623 1303.724487,1042.749634   C1311.264771,1024.792114 1331.529297,1018.323914 1345.953125,1028.852173   C1365.735107,1043.291626 1363.188354,1077.206177 1339.307007,1086.553589  z"/>
<path fill="#FEFEFE" opacity="1.000000" stroke="none" d=" M661.934937,1025.744507   C687.159546,1017.685425 704.612244,1040.973389 700.418335,1062.318237   C697.200500,1078.695679 685.557861,1088.639160 670.292908,1087.920776   C658.295166,1087.356323 650.355103,1080.521484 645.557190,1069.821777   C638.041016,1053.060181 645.204651,1033.491089 661.934937,1025.744507  z"/>
</svg>