<svg xmlns="http://www.w3.org/2000/svg" version="1.0" width="480.000000pt" height="480.000000pt" viewBox="0 0 480.000000 480.000000" preserveAspectRatio="xMidYMid meet">

<g transform="translate(0.000000,480.000000) scale(0.100000,-0.100000)" fill="#258425" stroke="none">
<path d="M817 3992 l-657 -657 0 -935 0 -935 653 -653 652 -652 935 0 935 0 657 657 658 658 0 925 0 925 -663 663 -662 662 -925 0 -925 0 -658 -658z m3120 -54 l633 -633 0 -905 0 -905 -632 -632 -633 -633 -905 0 -905 0 -632 632 -633 633 0 905 0 905 632 632 633 633 905 0 905 0 632 -632z" fill="#258425"/>
<path d="M967 3593 c-4 -3 -7 -219 -7 -480 l0 -473 75 0 75 0 1 363 c0 199 4 351 8 337 4 -14 34 -177 66 -362 l59 -338 41 0 41 0 58 328 c31 180 61 343 66 362 5 21 8 -111 9 -327 l1 -363 75 0 75 0 -2 478 -3 477 -122 3 c-68 1 -123 1 -123 -1 0 -3 -16 -106 -35 -230 -19 -124 -35 -231 -35 -238 0 -7 -2 -10 -5 -7 -4 4 -75 448 -75 470 0 10 -234 11 -243 1z" fill="#258425"/>
<path d="M2788 3458 c-3 -89 -4 -92 -28 -98 -23 -5 -25 -10 -25 -65 0 -58 1 -60 28 -63 l27 -3 0 -274 0 -274 26 -20 c21 -16 41 -21 90 -21 l64 0 0 59 c0 50 -3 61 -19 66 -26 8 -31 49 -31 273 l0 192 25 0 c24 0 25 2 25 65 0 63 -1 65 -25 65 -25 0 -25 0 -25 95 l0 95 -65 0 -64 0 -3 -92z" fill="#258425"/>
<path d="M2340 3348 c-64 -32 -90 -76 -90 -150 0 -80 20 -115 130 -223 50 -49 98 -102 106 -117 29 -55 9 -108 -41 -108 -33 0 -52 33 -60 103 l-7 57 -64 0 -64 0 0 -51 c0 -118 47 -194 136 -219 132 -37 249 48 248 180 -1 80 -31 129 -150 251 -79 80 -104 112 -104 132 0 35 40 63 69 48 19 -11 41 -65 41 -104 0 -16 8 -18 63 -15 l62 3 -3 50 c-2 28 -13 70 -25 95 -27 55 -88 90 -157 90 -28 0 -63 -9 -90 -22z" fill="#258425"/>
<path d="M3222 3355 c-54 -17 -80 -39 -103 -90 -16 -35 -19 -68 -19 -264 0 -209 2 -228 21 -269 44 -90 158 -127 248 -80 72 37 85 64 89 174 l4 94 -71 0 -71 0 0 -80 c0 -76 -1 -81 -25 -92 -45 -20 -55 1 -55 118 l0 104 110 0 110 0 0 128 c-1 172 -24 225 -117 258 -47 16 -66 16 -121 -1z m79 -105 c16 -9 19 -22 19 -90 l0 -80 -40 0 -40 0 0 80 c0 65 3 81 18 89 21 13 20 13 43 1z" fill="#258425"/>
<path d="M3805 3350 c-22 -11 -43 -27 -48 -35 -13 -25 -27 -17 -27 15 l0 30 -70 0 -70 0 0 -253 c0 -140 3 -302 7 -360 l6 -107 63 0 63 0 3 255 c3 246 4 255 25 276 16 16 38 24 77 27 l56 4 0 84 c0 81 -1 84 -23 84 -12 0 -40 -9 -62 -20z" fill="#258425"/>
<path d="M1744 3345 c-3 -7 -4 -150 -2 -317 3 -264 5 -307 21 -335 24 -44 54 -63 104 -63 33 0 50 7 78 31 l35 31 0 -26 c0 -27 0 -27 68 -24 l67 3 0 53 c-1 28 -2 189 -3 357 l-2 305 -64 0 -65 0 -3 -278 c-3 -297 -6 -312 -53 -312 -40 0 -45 33 -45 320 l0 270 -65 0 c-48 0 -67 -4 -71 -15z" fill="#258425"/>
<path d="M1035 2152 c-80 -38 -117 -106 -117 -214 0 -113 36 -175 183 -316 67 -64 127 -129 135 -144 21 -41 18 -114 -6 -138 -42 -42 -116 -33 -139 17 -6 13 -14 58 -18 99 l-6 74 -68 0 -69 0 0 -68 c0 -148 61 -246 169 -272 105 -25 221 18 269 99 24 41 27 56 27 136 0 131 -17 161 -174 315 -137 133 -159 169 -147 236 13 66 86 83 122 29 9 -14 19 -54 22 -90 l5 -65 70 0 70 0 -5 83 c-5 103 -32 163 -90 203 -35 25 -53 29 -117 32 -58 2 -85 -2 -116 -16z" fill="#258425"/>
<path d="M2690 2070 l0 -80 70 0 71 0 -3 78 -3 77 -67 3 -68 3 0 -81z" fill="#258425"/>
<path d="M1547 2103 c-4 -3 -7 -46 -7 -94 0 -83 -1 -88 -22 -91 -21 -3 -23 -9 -26 -65 -3 -61 -2 -63 22 -63 l25 0 3 -271 3 -271 28 -24 c23 -20 39 -24 93 -24 l64 0 0 60 c0 47 -3 60 -15 60 -28 0 -35 50 -35 261 l0 209 25 0 c24 0 25 2 25 65 0 63 -1 65 -25 65 -25 0 -25 0 -25 95 l0 95 -63 0 c-35 0 -67 -3 -70 -7z" fill="#258425"/>
<path d="M2370 2015 c0 -95 0 -95 -25 -95 -24 0 -25 -2 -25 -65 0 -63 1 -65 25 -65 l25 0 0 -270 0 -271 25 -24 c21 -22 33 -25 95 -25 l70 0 0 58 c0 50 -3 59 -22 67 -23 10 -23 12 -26 237 l-2 227 22 3 c21 3 23 8 23 63 0 54 -2 60 -22 63 -21 3 -22 9 -25 95 l-3 92 -67 3 -68 3 0 -96z" fill="#258425"/>
<path d="M3660 1913 c-14 -9 -30 -24 -37 -33 -11 -13 -12 -11 -13 13 l0 28 -67 -3 -68 -3 -3 -357 -2 -358 70 0 70 0 0 268 c0 290 5 317 50 317 45 0 50 -27 50 -317 l0 -268 64 0 64 0 7 148 c4 81 5 224 3 319 -5 152 -8 176 -27 206 -34 56 -110 75 -161 40z" fill="#258425"/>
<path d="M1939 1900 c-46 -24 -70 -74 -77 -157 l-5 -63 66 0 66 0 3 51 c3 59 25 82 56 63 12 -8 17 -24 17 -60 l0 -48 -78 -59 c-108 -81 -111 -88 -116 -228 -3 -131 7 -167 59 -194 39 -20 79 -19 118 5 26 16 32 17 32 5 0 -12 14 -15 65 -15 l65 0 0 298 c0 289 -1 299 -22 342 -14 27 -36 50 -58 62 -47 24 -143 24 -191 -2z m131 -570 c-14 -25 -46 -26 -60 -1 -15 29 -12 128 5 161 8 16 25 36 37 45 l23 15 3 -100 c1 -58 -2 -108 -8 -120z" fill="#258425"/>
<path d="M2690 1560 l0 -360 70 0 70 0 0 360 0 360 -70 0 -70 0 0 -360z" fill="#258425"/>
<path d="M3050 1897 c-28 -15 -51 -37 -64 -62 -20 -37 -21 -56 -21 -280 0 -224 1 -243 21 -280 58 -111 266 -114 329 -5 19 33 20 52 20 285 0 233 -1 252 -20 285 -44 76 -176 104 -265 57z m140 -112 c19 -22 19 -438 0 -460 -18 -22 -67 -19 -80 4 -6 12 -10 103 -10 226 0 123 4 214 10 226 13 23 62 26 80 4z" fill="#258425"/>
</g>
</svg>